<svg xmlns="http://www.w3.org/2000/svg" viewBox="0 0 64 64" width="64" height="64" fill="none" stroke="#A3E635" stroke-width="2" stroke-linecap="round" stroke-linejoin="round">
  <path d="M20 44 C20 30 23.5 19 32 19 C40.5 19 44 30 44 44 Z"/>
  <path d="M20 44 c-2.2 0 -2.8 2.2 -0.6 3.2"/>
  <path d="M44 44 c2.2 0 2.8 2.2 0.6 3.2"/>
  <line x1="32" y1="44" x2="32" y2="50"/>
  <path d="M24 54 C24 49.5 40 49.5 40 54 Z"/>
  <line x1="32" y1="5" x2="32" y2="11"/>
  <line x1="17" y1="11" x2="21" y2="15.5"/>
  <line x1="47" y1="11" x2="43" y2="15.5"/>
  <line x1="11" y1="25" x2="16.5" y2="27"/>
  <line x1="53" y1="25" x2="47.5" y2="27"/>
</svg>
