<svg width="62" height="60" viewBox="0 0 62 60" fill="none" xmlns="http://www.w3.org/2000/svg">
<path d="M30.5972 33.1042C36.3561 33.1042 41.0247 28.4218 41.0247 22.6459C41.0247 16.8699 36.3561 12.1875 30.5972 12.1875C24.8382 12.1875 20.1697 16.8699 20.1697 22.6459C20.1697 28.4218 24.8382 33.1042 30.5972 33.1042Z" stroke="white" stroke-width="2" stroke-miterlimit="10"/>
<path d="M14.4568 53.6451V47.527C14.4568 41.9692 18.9503 37.4624 24.4917 37.4624H36.6918C42.2332 37.4624 46.7267 41.9692 46.7267 47.527V53.6451" stroke="white" stroke-width="2" stroke-miterlimit="10" stroke-linecap="round"/>
<path d="M30.5176 1C46.8355 1.00018 60.0342 13.9999 60.0342 30C60.0342 46.0001 46.8355 58.9998 30.5176 59C14.1995 59 1 46.0002 1 30C1 13.9998 14.1995 1 30.5176 1Z" stroke="#A7E61D" stroke-width="2"/>
</svg>
