<?xml version="1.0" encoding="UTF-8"?>
<svg id="Capa_2" data-name="Capa 2" xmlns="http://www.w3.org/2000/svg" viewBox="0 0 327.4 298.36">
  <defs>
    <style>
      .cls-1 {
        fill: #ffffff;
      }
    </style>
  </defs>
  <g id="Capa_1-2" data-name="Capa 1">
    <path class="cls-1" d="M257.91,264.06l-.08,10.02c0,1.02-.56,1.61-1.43,2.06-11.42,5.94-23.2,10.47-35.61,14.1-22.51,6.59-45.55,9.07-69.05,7.79-25.95-1.41-51.2-7.71-74.74-18.65-23.64-10.99-46.34-28.15-60.52-50.18C6.38,213.53.15,195.66.11,176.88L0,126.74c-.03-14.15,2.74-27.58,8.31-40.49,12.18-28.22,34.96-49.18,61.79-63.56,14.79-7.92,30.46-13.41,46.81-17.21,27.32-6.36,55.33-7.17,83.02-2.5,33.98,5.73,67.25,19.88,92.17,43.97,22.81,22.04,36.85,51.5,35.16,83.64l.07,46.66c-1.48,38.64-24.43,69.74-55.96,90.3-.9,1.09-3.64,1.02-3.68-.47l-.25-8.5-9.53,5.49ZM224.25,43.06l26.36-18.79c-16.34-7.88-33.25-13.11-50.91-16.17-28.09-4.93-56.7-3.82-84.37,3.01-13.27,3.27-25.93,7.6-38.4,13.75l26.65,18.59c38.22-17.97,82.33-18.18,120.67-.39ZM243.84,189.28l-14.07,7.98,31.73,22.08c21.87-13.67,39.91-31.99,51.25-55.49,12.82-26.82,12.54-52.87.14-79.82-6.31-13.11-15.01-24.59-25.54-34.65-9.55-8.95-20.1-16.37-31.85-22.48l-26.3,18.52c11.21,5.72,21.13,12.67,29.77,21.5,3.87,4.3,7.15,8.67,9.78,13.77.57,1.33.28,2.68-.89,3.65l-38.18,26.22,16.47,10.11,11.8,8.65c10.43,8.85,14.74,19.74,10.49,33.13-3.7,11.65-14.27,20.24-24.61,26.84ZM181.24,212.37c-37.46,4.5-73.23-5.8-103.48-27.42-5.95-4.25-10.71-9.15-15.78-14.38-.95-.98-2.6-3.3-.84-4.52l41.26-28.49c-8.43-5.2-16.47-9.92-24.24-15.5-5.1-3.66-9.64-7.45-13.56-12.31-7.73-10.14-8.78-21.74-2.41-32.91,3.48-6.03,8.06-10.97,13.3-15.61,7.02-6.18,14.77-10.91,23.04-15.37l-26.6-18.42c-25.62,13.98-46.76,33.47-58.77,60.23-10.1,23.54-10.84,45.81-1.68,69.81,11.19,29.33,34.81,52.03,62.29,66.6,15.4,8.17,31.65,13.96,48.76,17.6,24.54,5.09,49.73,5.74,74.49,1.7,21.04-3.45,41.07-10.24,59.9-21.17l-32.4-22.53c-7.18,3.14-14.1,5.79-21.43,8.04-7.25,2.05-14.04,3.63-21.84,4.65ZM161.43,43.49v-8.57c-19.77.5-38.76,4.91-56.49,13.41l1.17,7.73c18.2-8.35,35.49-12.05,55.31-12.57ZM221.14,55.63l1.76-7.67c-17.9-8.39-37.03-12.87-56.79-13.04l-.06,8.65c19.05-.09,37.64,4,55.1,12.06ZM107.96,66.59c16.8-7.79,34.73-11.78,53.47-11.79v-8.4c-19.51.53-37.11,4.43-54.74,12.46l1.27,7.74ZM218.81,65.91l1.65-7.4c-17.13-8.14-35.52-12.02-54.39-12.07l-.02,8.37c18.36-.28,36.04,3.55,52.76,11.1ZM258.97,84.51l4.48-3.11c-7.42-13.88-22.73-24.32-36.84-31.66l-1.78,7.65c12.97,5.72,25.62,15.66,34.13,27.11ZM102.49,57.82l-1.32-7.65c-13.5,6.94-27.76,16.51-35.11,29.82-1.88,3.83-3.57,7.67-3.03,12.31,8.84-15.69,23.6-26.74,39.46-34.48ZM161.45,65.13l.02-7.79c-6.57.24-12.57.94-18.98,1.87-11.89,1.79-23.14,5.32-33.99,10.24l1.27,7.08c16.74-7.26,33.29-10.97,51.69-11.4ZM216.54,75.41l1.62-6.67c-16.9-7.55-33.46-11.07-52.09-11.47l-.05,7.92c17.74.33,34.17,3.39,50.53,10.22ZM252.17,89.3l4.66-3.41c-8.82-11.18-20-19.77-32.82-25.61l-1.61,7.24c4.83,2.06,8.93,4.61,13.12,7.49,6.11,4.2,11.66,8.68,16.66,14.3ZM65.33,101.42c8.86-14.78,23.98-25.72,39.06-33.21l-1.34-7.58c-15.9,7.99-31.6,19.75-39.37,36.01,0,1.59.97,3.27,1.65,4.78ZM165.03,73.5c4.42.66,7.55,2.49,11.19,4.52l38.63,21.49c.63.41,1.32.82,2.06,1.23.75.41,1.48.77,2.17,1.09l8.09,4.53,14.85-10.04c-14.96-12.89-33.58-20.84-52.48-24.37-11.48-2.15-22.62-3.12-34.36-2.29-21.58,1.54-42.32,8.44-60.55,19.93-8.27,5.21-17.45,12.78-22.82,20.99,3.23,3.09,6.5,5.69,10.15,8-3.67-9.55,4.4-15.96,12.3-20.48l30.38-17.36c12.45-6.66,26.24-9.34,40.39-7.23ZM249.9,90.74c-5.88-6.32-12.33-11.09-19.33-15.41-2.96-1.83-5.68-3.56-8.99-4.82l-1.52,6.52c9.55,4.07,17.88,9.9,25.65,16.74l4.19-3.03ZM106.14,78.15l-1.15-7.06c-10.53,5.18-20.02,11.67-28.2,19.97-3.93,3.98-7.21,8.07-9.97,12.95.48,1.17,1.18,2.08,2.22,3.12,8.86-12.72,23.25-22.03,37.1-28.98ZM208.71,200.54l25.99-15.94c5.5-3.71,12.24-9.62,11.66-16.23-.66-7.54-9-13.04-15.67-16.82l-21.46-12.16-71.62-39.73c-1.43-.79-1.56-3.48-.18-4.29l29.4-17.33c-13.45-3.68-30.76.79-42.62,7.62l-29.34,16.91c-2.91,1.68-5.41,3.53-7.57,5.96-2.72,3.06-3.03,7.2-.16,10.39,3.05,3.38,6.84,5.96,11,8.28l94.79,52.78c1.22.68,1.88,1.11,2.04,2.23.12.84.17,2.28-.77,2.83l-39.24,22.9,7.25.56c15.88.28,31.37-2.45,46.48-7.96ZM222.36,110.9c0-.95.42-1.5.87-2.31l-3.89,2.4-12.77,7.25c-.87.5-1.98.62-2.87.15l-15.13-7.85c-.77.52-2.23,1.37-4.27,1.68-2.02.32-3.6-.04-4.21-.2-.98-.26-3.56-.94-5.16-3.34-.98-1.48-1.13-2.92-1.16-3.22-.14-1.61.34-2.85.6-3.41-1.8-1.37-3.61-2.73-5.41-4.1-1.31-.86-2.61-1.72-3.92-2.58-.25-.21-.65-.61-.69-1.16-.06-.85.77-1.54,1.19-1.88,1.48-1.2,5.9-4.56,11.89-8.98l-7.11-3.86c-9.83,5.64-19.11,11.36-28.78,17.68l28.61,15.43,57.54,32.27,13.05,8.21c2.74,1.73,4.8,4.21,6.7,6.77,3.78,5.09,4.18,11.4,1.04,16.92-1.99,3.5-4.89,5.93-7.88,8.59,4.08-1.74,7.02-4.47,10.24-7.04,4.78-4.01,8.87-8.55,11.78-14.29-8.43-11.17-22.21-19.14-34.22-26.38-.16-.1-4.77-2.24-5.41-3.27-1.16-1.86-.61-17.2-.63-23.5ZM208.87,100.47c-2.94,2.19-5.57,4.22-8.86,5.95l-17.08-10.9c-1.11-.71-.63-2.58.39-3.14l4.22-3.49-7.64-4.22c-4.24,3.19-8.48,6.37-12.73,9.56,5.02,3.23,10.16,6.47,15.42,9.71,7.33,4.51,14.57,8.8,21.69,12.89,5.31-3.34,10.62-6.69,15.93-10.03l-11.36-6.32ZM206.17,99.13l-15.96-9.06-4.89,4.07,15.03,9.16,5.82-4.17ZM186.32,108.95l-9.8-5.55c-.21.41-.73,1.57-.37,2.86.38,1.35,1.5,2.02,2.51,2.63.52.31,1.98,1.16,4.05,1.11,1.75-.04,3.03-.7,3.61-1.05ZM265.04,151.79c-.01-6.49-3.05-11.58-7.25-15.77-3.84-3.92-8.12-6.96-12.7-10.05l-17.87-11-.02,8.01c10.23,5.66,19.93,11.61,28.79,19.05,3.6,2.98,6.52,6.11,9.04,9.77ZM263.71,160.89c.71-1.74,1.07-3.36,1.19-5.2-3.79-5.58-8.43-10.06-13.73-14.2-7.56-5.78-15.37-10.66-23.9-15.54l-.08,7.41c13.07,7.51,26.71,15.88,36.53,27.53ZM124.42,163.19l15.77,8.81c4.83-2.49,10.19-1.62,13.85,2.21,1.7,1.78,2.39,3.99,1.52,6.6l15.6,9.02c.46.27.69.84.75,1.15.06.37-.09.97-.51,1.28l-4.58,3.34.27.58,22.86-13.22-79.99-44.33-.15,23.93c-10.18,5.77-19.59,11.95-29.21,18.41,15.69,10.98,32.6,18.92,50.81,23.55l16.13,3.04,5.3-3.31-48.43-27.03c-.73-.41-.76-1.92-.1-2.3l20.11-11.73ZM105.48,149.87l-.21-8.22-38.87,26.41,4.38,4.52c11.46-7.91,22.81-15.43,34.7-22.71ZM105.51,161.09l-.27-8-32.42,21.45,5.35,4.47,27.34-17.91ZM18.11,197.81l.03-16.24c-5.42-8.44-9.81-17.22-12.87-26.78l-.12,9c1.14,11.62,6.67,23.78,12.96,34.03ZM308.65,197.07c6.88-11.15,11.14-22.66,13.05-34.97l-.09-6.53c-3.38,9.41-7.7,17.84-13.17,26.05l.2,15.44ZM148.9,191.93l-5.47,3.93,10.73,6.18,14.79-10.75-44.35-25.2-16.73,9.85,11.61,6.56,9.13-5.51,20.97,12.05c.64.37.76,1.28.57,1.8-.13.36-.6.79-1.24,1.08ZM153.48,179.62c1.06-4.62-6.07-8.3-10.73-6.16l10.73,6.16ZM308.52,222.9c4.92-8.06,8.35-16.27,10.78-25.08,1.48-6.44,2.7-12.66,2.34-19.1-3.31,9.5-7.57,17.91-13.18,26.14l.06,18.04ZM146.94,190.37l-18.5-10.67-6.39,4.24,19.09,10.66,5.8-4.23ZM18.02,222.12l.14-17.03c-5.06-7.37-9.18-15.04-12.55-23.34-.09,4.96.86,9.32,1.95,13.98,2.25,9.37,5.58,18.35,10.47,26.39ZM44.57,227.84l.04-17.29c-8.22-6.71-15.2-14-21.75-22.3l-.03,16.42c4.66,6.33,9.65,12.1,15.22,17.61l6.52,5.56ZM282.24,227.78c8.44-7.23,15.32-14.69,21.52-23.18l-.15-16.37c-6.68,8.45-13.45,15.66-21.51,22.31l.14,17.24ZM44.54,252.97l.06-19.66c-8.15-6.6-15.12-13.69-21.84-22v18.37c6.42,8.69,13.27,16.62,21.78,23.29ZM282.26,253.15c8.62-6.84,15.42-14.49,21.53-23.04l-.09-18.82c-6.58,8.25-13.54,15.36-21.59,21.94l.15,19.92ZM79.28,250.23v-17.71c-10.76-5.07-20.5-11.04-30.09-18.15l-.02,17.46c9.49,7.31,19.3,13.37,30.11,18.4ZM277.57,231.61l-.18-17.17c-9.58,7.23-19.05,13.07-29.37,18.15l.1,17.44c10.62-5.28,20.36-11.1,29.44-18.42ZM118.19,263.76l.03-17.82c-11.92-2.75-23.06-6.58-34.36-11.33v17.77c11.26,4.78,22.45,8.74,34.33,11.37ZM243.44,252.19l-.06-17.39c-11.27,4.97-22.29,8.69-33.9,11.23l.05,17.71c11.84-2.83,22.9-6.57,33.92-11.55ZM79.25,274.77l.09-19.84c-10.88-5.04-20.63-10.96-30.15-18l-.03,19.8c9.39,7.08,19.26,13.2,30.1,18.04ZM255.01,260.22l13.76-8c.83-.48,1.64-.43,2.32-.06.64.35,1.01,1.02,1.02,1.88l.08,6.74,5.32-3.74-.02-20.12c-9.29,7.05-18.94,12.8-29.41,17.88l-.03,19.75,4.81-2.15.12-9.8c.01-1.17.98-1.78,2.02-2.39ZM204.89,264.75l-.14-17.69c-27.36,5.2-54.76,5.21-81.91-.22l-.03,18.02c27.24,5.5,55.02,5.61,82.08-.12ZM118.21,288.15l.02-19.96c-11.83-2.65-23.07-6.47-34.3-11.22l-.12,19.98c11.16,4.64,22.45,8.59,34.4,11.2ZM243.43,276.79l-.05-19.89c-11.23,4.94-22.24,8.53-33.78,11.25l-.08,19.82c11.79-2.75,22.78-6.48,33.91-11.18ZM204.88,288.97l-.07-19.71c-27.37,5.57-54.85,5.3-81.97-.03l-.02,19.95c27.29,5.62,54.89,5.59,82.06-.22Z"/>
  </g>
</svg>