<svg width="30" height="30" viewBox="0 0 30 30" fill="none" xmlns="http://www.w3.org/2000/svg">
<path d="M6.0126 11.1031H8.09385L9.71572 12.0281L10.872 13.8781L11.1032 14.8031V16.8844L10.4095 18.7344L9.48447 19.8907L8.3251 20.5844H5.78135L4.1626 19.4282L3.2376 17.8094L3.00635 16.6531V15.0344L3.7001 12.9531L4.85635 11.7969L6.0126 11.1031Z" fill="#B7E61C"/>
<path d="M22.6657 17.1156L22.897 17.5781L22.2032 20.1219L23.3595 19.6594L24.0532 19.8906L22.4345 20.5844L20.3532 20.3531L18.5032 19.8906H15.9595V19.6594L14.3407 19.4281V19.8906L15.497 20.1219L14.572 20.8156L10.4095 22.6656L8.09385 23.3594H6.0126L5.31885 22.8969H7.8626L9.71572 22.2031L12.0282 20.1219L14.1095 19.1969H17.347L21.5095 20.1219L21.972 20.3531L22.2032 18.2719L22.6657 17.1156Z" fill="#B7E61D"/>
<path d="M17.1156 9.25317L18.5031 9.48442L20.1219 10.4094L19.8906 11.1032L17.1156 12.2594L15.9594 12.0282L14.1094 11.1032L14.3406 10.4094L17.1156 9.25317ZM18.2719 9.94692V11.3344L19.6594 10.8719V10.4094L18.2719 9.94692Z" fill="#B6E61C"/>
<path d="M4.1627 7.40002L4.39395 7.86252L3.93144 9.25315L4.85644 9.0219L5.0877 8.09378H5.78144L6.24395 8.32502L6.9377 7.63127L9.02207 7.40002L8.09395 8.09378L6.9377 8.55627L7.8627 9.0219L9.71582 9.71565L9.02207 9.9469L6.70644 9.25315L4.6252 9.4844L3.7002 9.71565V8.09378L4.1627 7.40002Z" fill="#B7E61D"/>
<path d="M26.1344 12.4906L27.2938 12.7219L28.6813 13.6469L28.9125 14.3406L27.9875 18.0406L26.8313 18.7344L25.6719 18.9656L26.6 18.2719L27.525 17.8094L28.45 14.1094L27.9875 13.8781L27.0625 13.1844L26.1344 12.4906ZM17.5781 13.6469L18.7344 13.8781L22.4344 15.7281L24.7469 15.4969L23.8219 16.1906L22.6656 16.4219L17.5781 13.8781V13.6469Z" fill="#B6E61C"/>
<path d="M17.5783 8.32495L18.7346 8.5562L23.8221 11.1031L23.1283 11.3343L17.5783 8.5562V8.32495ZM11.1033 18.9656L11.3346 19.4281L9.71582 21.2781L8.09395 21.9718H6.0127L6.24395 21.5093H7.8627L9.71582 20.5843L11.1033 18.9656Z" fill="#B7E61D"/>
<path d="M0.925097 13.8782H1.15635L1.3876 17.8094L2.08135 20.1219L1.3876 19.4282L0.925097 18.0407L0.693848 15.4969L0.925097 13.8782Z" fill="#B7E61C"/>
<path d="M11.3345 12.7219L11.797 13.1844L12.2595 15.0344V16.6532L11.5657 18.9657L11.3345 18.2719L11.797 15.4969L11.3345 12.7219Z" fill="#B6E61C"/>
<path d="M10.872 6.47498H13.647L15.497 7.16873L14.8032 7.39998L13.4157 6.93748H10.1782L10.872 6.47498ZM26.6001 15.4969H27.2938L27.0626 17.3469L26.8313 16.4219V15.9594L25.2095 16.6531L24.5157 16.4219L26.6001 15.4969Z" fill="#B7E61C"/>
<path d="M24.0532 16.6531L24.5157 16.8844L24.0532 18.2719L25.2095 17.8094L25.9032 18.0406L24.0532 18.7344L23.822 17.5781L24.0532 16.6531ZM11.3345 10.6406L12.4907 10.8719L14.8032 12.0281L14.1095 12.2594L11.3345 10.8719V10.6406Z" fill="#B7E61D"/>
<path d="M2.54395 20.8157L5.31895 22.8969L4.16269 22.6657L2.54395 21.2782V20.8157Z" fill="#B7E61C"/>
<path d="M15.4971 7.40002L16.6533 7.63127L17.5783 8.32502L16.4221 8.09378L15.4971 7.40002Z" fill="#B7E61D"/>
<path d="M6.24375 6.24377L7.8625 6.47502L7.16875 6.70627H5.78125L6.24375 6.24377Z" fill="#B7E61C"/>
<path d="M10.1779 11.3344L11.1029 11.7969L11.3342 12.7219L10.1779 11.5657V11.3344ZM5.0873 6.7063H5.78105V7.1688L4.39355 7.40005L5.0873 6.7063Z" fill="#B7E61D"/>
<path d="M24.9782 18.9656L25.672 19.1968L24.747 19.6593L24.0532 19.4281L24.9782 18.9656Z" fill="#B6E61C"/>
<path d="M25.6721 14.8031L26.3658 15.0344L25.4408 15.4969L24.7471 15.2656L25.6721 14.8031Z" fill="#B6E61D"/>
<path d="M27.2938 14.1094L27.9876 14.3406L27.0626 14.8031L26.3657 14.5719L27.2938 14.1094Z" fill="#B7E61D"/>
<path d="M9.71582 9.9469L10.8721 10.1781L11.3346 10.6406L10.1783 10.4094L9.71582 9.9469Z" fill="#B6E61D"/>
<path d="M3.23769 9.71558L3.70019 9.94683L2.54395 10.8718L3.00644 9.94683L3.23769 9.71558Z" fill="#B7E61D"/>
<path d="M1.3875 12.4906L1.61875 13.1844L1.15625 13.8781L1.3875 12.4906Z" fill="#B6E61C"/>
<path d="M5.78115 7.16875L6.9374 7.4L6.24365 7.63125L5.78115 7.16875ZM9.48428 6.9375L10.178 7.16875L9.02178 7.4L9.48428 6.9375ZM26.3655 17.3469L26.8312 17.5781L25.903 17.8094L26.3655 17.3469ZM1.8499 11.5656L2.08115 12.0281L1.61865 12.4906L1.8499 11.5656ZM2.08115 20.1219L2.54365 20.3531L2.3124 20.8156L2.08115 20.1219Z" fill="#B7E61D"/>
</svg>
