<svg width="67" height="65" viewBox="0 0 67 65" fill="none" xmlns="http://www.w3.org/2000/svg">
<path d="M30.44 64.35C46.9754 64.35 60.38 50.9454 60.38 34.41C60.38 17.8746 46.9754 4.46997 30.44 4.46997C13.9046 4.46997 0.5 17.8746 0.5 34.41C0.5 50.9454 13.9046 64.35 30.44 64.35Z" stroke="#484848" stroke-miterlimit="10"/>
<path d="M20.1398 32.95H11.4698C10.1098 32.95 8.85984 33.6699 8.17984 34.8499L3.84984 42.36C3.16984 43.53 3.16984 44.98 3.84984 46.16L8.17984 53.6699C8.85984 54.8399 10.1098 55.57 11.4698 55.57H20.1398C21.4998 55.57 22.7498 54.8499 23.4298 53.6699L27.7598 46.16C28.4398 44.99 28.4398 43.54 27.7598 42.36L23.4298 34.8499C22.7498 33.6799 21.4998 32.95 20.1398 32.95Z" stroke="#484848" stroke-miterlimit="10"/>
<path d="M2.61035 23.07L6.13035 29.4599C7.08035 31.1799 8.88035 32.24 10.8404 32.24H17.4704C19.4304 32.24 21.2404 31.1699 22.1804 29.4599L25.7004 23.07C26.5904 21.45 26.5904 19.49 25.7004 17.87L22.1804 11.48C21.2304 9.75995 19.4304 8.69995 17.4704 8.69995H15.1004" stroke="#484848" stroke-miterlimit="10"/>
<path d="M38.5695 19.71H29.8995C28.5395 19.71 27.2895 20.43 26.6095 21.61L22.2795 29.12C21.5995 30.29 21.5995 31.74 22.2795 32.92L26.6095 40.43C27.2895 41.6 28.5395 42.33 29.8995 42.33H38.5695C39.9295 42.33 41.1795 41.61 41.8595 40.43L46.1895 32.92C46.8695 31.75 46.8695 30.3 46.1895 29.12L41.8595 21.61C41.1795 20.44 39.9295 19.71 38.5695 19.71Z" stroke="#484848" stroke-miterlimit="10"/>
<path d="M22.22 5.37988C21.26 7.04988 21.26 9.09988 22.22 10.7599L25.48 16.4099C26.44 18.0799 28.22 19.0999 30.14 19.0999H36.66C38.58 19.0999 40.36 18.0699 41.32 16.4099L44.58 10.7599C45.06 9.92988 45.3 8.99988 45.3 8.06988" stroke="#484848" stroke-miterlimit="10"/>
<path d="M60.4301 30.8899C59.7401 30.5799 58.9901 30.4099 58.2101 30.4099H51.3801C49.4601 30.4099 47.6801 31.4399 46.7201 33.0999L43.3001 39.0199C42.3401 40.6899 42.3401 42.7399 43.3001 44.3999L46.7201 50.3199C47.6801 51.9899 49.4601 53.0099 51.3801 53.0099H53.8901" stroke="#484848" stroke-miterlimit="10"/>
<path d="M45.8397 60.0899L47.4297 57.3399C48.3897 55.6699 48.3897 53.6199 47.4297 51.9599L44.0097 46.0399C43.0497 44.3699 41.2697 43.3499 39.3497 43.3499H32.5197C30.5997 43.3499 28.8197 44.3799 27.8597 46.0399L24.4397 51.9599C23.4797 53.6299 23.4797 55.6799 24.4397 57.3399L27.8597 63.2599C28.0997 63.6699 28.3797 64.0399 28.6997 64.3599" stroke="#484848" stroke-miterlimit="10"/>
<path d="M45.7697 8.68994C45.5197 8.96994 45.2997 9.26994 45.1097 9.59994L41.6897 15.5199C40.7297 17.1899 40.7297 19.2399 41.6897 20.8999L45.1097 26.8199C46.0697 28.4899 47.8497 29.5099 49.7697 29.5099H56.5997C57.7697 29.5099 58.8797 29.1299 59.7897 28.4599" stroke="#484848" stroke-miterlimit="10"/>
<path d="M59.79 0.5V13.67" stroke="#484848" stroke-linecap="round" stroke-linejoin="round"/>
<path d="M53.2002 7.08008H66.3702" stroke="#484848" stroke-linecap="round" stroke-linejoin="round"/>
</svg>
