<svg width="50" height="39" viewBox="0 0 50 39" fill="none" xmlns="http://www.w3.org/2000/svg">
<path d="M35.2539 1C38.7279 1.00001 41.5964 3.71397 41.7891 7.18262L41.9277 9.66992C41.9477 10.0296 42.1856 10.3411 42.5273 10.4551C42.6168 10.4848 42.7104 10.5 42.8047 10.5H43.1982C46.1263 10.5001 48.4999 12.8737 48.5 15.8018V27.7998C48.5 33.4087 43.8878 37.9211 38.2803 37.7979L10.7803 37.1934C5.34436 37.0739 1 32.6325 1 27.1953V11C1 5.47715 5.47715 1 11 1H35.2539Z" stroke="#a7e61d" stroke-width="2"/>
<rect x="36.5" y="15.5" width="5" height="5" rx="2.5" stroke="#a7e61d"/>
<path d="M12 10.0701L41.9999 9.99999" stroke="#a7e61d" stroke-width="2"/>
</svg>
