<svg width="25" height="27" viewBox="0 0 25 27" fill="none" xmlns="http://www.w3.org/2000/svg">
<path d="M0.477539 9.17993H24.5222" stroke="#A7E61D" stroke-miterlimit="10"/>
<path d="M23.1618 3.06885H1.84C1.08754 3.06885 0.477539 3.66414 0.477539 4.39848V25.2064C0.477539 25.9407 1.08754 26.536 1.84 26.536H23.1618C23.9142 26.536 24.5242 25.9407 24.5242 25.2064V4.39848C24.5242 3.66414 23.9142 3.06885 23.1618 3.06885Z" stroke="#A7E61D" stroke-miterlimit="10"/>
<path d="M7.07227 0.466309V5.51322" stroke="#A7E61D" stroke-miterlimit="10" stroke-linecap="round"/>
<path d="M17.2529 0.466309V5.51322" stroke="#A7E61D" stroke-miterlimit="10" stroke-linecap="round"/>
<path d="M12.8372 12.2769H12.1602V12.9376H12.8372V12.2769Z" stroke="#A7E61D" stroke-miterlimit="10" stroke-linecap="round"/>
<path d="M12.8372 17.4131H12.1602V18.0738H12.8372V17.4131Z" stroke="#A7E61D" stroke-miterlimit="10" stroke-linecap="round"/>
<path d="M5.92903 12.2769H5.25195V12.9376H5.92903V12.2769Z" stroke="#A7E61D" stroke-miterlimit="10" stroke-linecap="round"/>
<path d="M5.92903 17.4131H5.25195V18.0738H5.92903V17.4131Z" stroke="#A7E61D" stroke-miterlimit="10" stroke-linecap="round"/>
<path d="M19.7327 12.2769H19.0557V12.9376H19.7327V12.2769Z" stroke="#A7E61D" stroke-miterlimit="10" stroke-linecap="round"/>
<path d="M19.7327 17.4131H19.0557V18.0738H19.7327V17.4131Z" stroke="#A7E61D" stroke-miterlimit="10" stroke-linecap="round"/>
<path d="M12.8372 21.8235H12.1602V22.4842H12.8372V21.8235Z" stroke="#A7E61D" stroke-miterlimit="10" stroke-linecap="round"/>
<path d="M5.92903 21.8235H5.25195V22.4842H5.92903V21.8235Z" stroke="#A7E61D" stroke-miterlimit="10" stroke-linecap="round"/>
<path d="M19.7327 21.8235H19.0557V22.4842H19.7327V21.8235Z" stroke="#A7E61D" stroke-miterlimit="10" stroke-linecap="round"/>
</svg>
