<svg width="65" height="65" viewBox="0 0 65 65" fill="none" xmlns="http://www.w3.org/2000/svg">
<mask id="mask0_925_289" style="mask-type:luminance" maskUnits="userSpaceOnUse" x="0" y="6" width="65" height="52">
<path d="M0 6.93333H64.1469V57.2H0V6.93333Z" fill="white"/>
</mask>
<g mask="url(#mask0_925_289)">
<path d="M1.50313 8.51771H62.6437L64.1469 10.0208V54.1193L62.6437 55.6224H1.50313L0 54.1193V10.0208L1.50313 8.51771ZM4.50937 12.526L4.00833 13.0271V20.5495L13.5281 21.0505L14.0292 21.5516V42.5953L13.5281 43.0964L4.00833 43.5974V51.113L4.50937 51.6141H30.0693V44.5995L25.5599 42.5953L22.0526 39.5891L20.0484 35.0797V29.0672L22.0526 24.5578L26.0609 21.0505L30.0693 19.5474V12.526H4.50937ZM34.0776 12.526V19.5474L38.587 21.5516L42.0943 24.5578L44.0984 29.0672V35.0797L42.0943 39.5891L38.0859 43.0964L34.0776 44.5995V51.6141H59.6375L60.1385 51.113V43.5974L50.612 43.0964L50.1109 42.5953V21.5516L50.612 21.0505L60.1385 20.5495V13.0271L59.6375 12.526H34.0776ZM29.5682 23.5557L26.562 25.0589L24.0568 28.0651L23.5557 29.5682V34.5786L26.0609 38.587L28.0651 40.0901L29.5682 40.5911H34.5786L37.5849 39.088L40.0901 36.0818L40.5911 34.5786V29.5682L38.587 26.0609L36.0818 24.0568L34.5786 23.5557H29.5682ZM4.00833 24.5578V39.5891H10.5219V24.5578H4.00833ZM53.6182 24.5578V39.5891H60.1385V24.5578H53.6182Z" fill="#B7E61D"/>
</g>
</svg>
