<svg width="28" height="26" viewBox="0 0 28 26" fill="none" xmlns="http://www.w3.org/2000/svg">
<path d="M8.25 10.4906C10.2703 10.4906 12.0234 11.6344 12.9 13.3078C13.5891 12.5016 14.6062 11.9906 15.75 11.9906C17.8219 11.9906 19.5 13.6687 19.5 15.7406C19.5 15.9984 19.4719 16.2516 19.425 16.4906C19.4484 16.4906 19.4766 16.4906 19.5 16.4906C21.9844 16.4906 24 18.5062 24 20.9906C24 23.475 21.9844 25.4906 19.5 25.4906H4.5C2.01562 25.4906 0 23.475 0 20.9906C0 18.9984 1.29844 17.3109 3.09375 16.7156C3.03281 16.3969 3 16.0734 3 15.7406C3 12.8391 5.34844 10.4906 8.25 10.4906ZM17.25 0C17.4984 0 17.7328 0.126562 17.8734 0.332812L20.0906 3.63281L23.9953 2.86875C24.2391 2.82188 24.4922 2.90156 24.6656 3.075C24.8438 3.25313 24.9188 3.50625 24.8719 3.75L24.1078 7.65469L27.4078 9.87188C27.6141 10.0125 27.7406 10.2469 27.7406 10.4953C27.7406 10.7438 27.6187 10.9781 27.4125 11.1141L24.1125 13.3312L24.7922 16.8094C23.9859 15.7922 22.8984 15.0094 21.6422 14.5922C21.525 13.9969 21.3188 13.4391 21.0422 12.9187C21.4922 12.2203 21.7547 11.3859 21.7547 10.4953C21.7547 8.01094 19.7391 5.99531 17.2547 5.99531C15.0094 5.99531 13.1484 7.64062 12.8109 9.7875C11.8313 9.0375 10.6594 8.52187 9.38437 8.32969L10.3922 7.65L9.62812 3.75L9.61406 3.65625C9.6 3.44062 9.675 3.22969 9.82969 3.075C10.0078 2.89688 10.2609 2.82188 10.5047 2.86875L14.4094 3.63281L16.6266 0.332812L16.6828 0.257812C16.8234 0.09375 17.0297 0 17.25 0ZM17.25 8.24063C18.4922 8.24063 19.5 9.24844 19.5 10.4906C19.5 10.6687 19.4766 10.8469 19.4344 11.0109C18.4172 10.2188 17.1422 9.74063 15.75 9.74063C15.5344 9.74063 15.3234 9.75 15.1172 9.77344C15.4172 8.88281 16.2563 8.24063 17.25 8.24063Z" fill="#A7E61D"/>
</svg>
