<svg width="23" height="24" viewBox="0 0 23 24" fill="none" xmlns="http://www.w3.org/2000/svg">
<path d="M18 9C20.4844 9 22.5 6.98438 22.5 4.5C22.5 2.01562 20.4844 0 18 0C15.5156 0 13.5 2.01562 13.5 4.5C13.5 4.75313 13.5234 5.00625 13.5609 5.25L7.48125 8.62969C6.68906 7.92656 5.64375 7.5 4.5 7.5C2.01562 7.5 0 9.51562 0 12C0 14.4844 2.01562 16.5 4.5 16.5C5.64375 16.5 6.68438 16.0734 7.48125 15.3703L13.5609 18.75C13.5187 18.9937 13.5 19.2422 13.5 19.5C13.5 21.9844 15.5156 24 18 24C20.4844 24 22.5 21.9844 22.5 19.5C22.5 17.0156 20.4844 15 18 15C16.8563 15 15.8156 15.4266 15.0187 16.1297L8.93906 12.75C8.98125 12.5063 9 12.2578 9 12C9 11.7422 8.97656 11.4937 8.93906 11.25L15.0187 7.87031C15.8109 8.57344 16.8563 9 18 9Z" fill="#A6DB1F"/>
</svg>
