<svg width="90" height="90" viewBox="0 0 90 90" fill="none" xmlns="http://www.w3.org/2000/svg">
<g clip-path="url(#clip0_925_298)">
<mask id="mask0_925_298" style="mask-type:luminance" maskUnits="userSpaceOnUse" x="0" y="0" width="89" height="89">
<path d="M0 0H88.8187V88.8187H0V0Z" fill="white"/>
</mask>
<g mask="url(#mask0_925_298)">
<path d="M40.9406 0H47.8781L58.2844 2.08125L69.3844 7.63125L76.3219 13.1813L82.575 21.5063L86.7375 30.5344L88.8187 40.9406V47.8781L86.7375 58.2844L81.1875 69.3844L75.6281 76.3219L67.3031 82.575L58.2844 86.7375L47.8781 88.8187H40.9406L30.5344 86.7375L19.425 81.1875L12.4875 75.6281L6.24375 67.3031L2.08125 58.2844L0 47.8781V40.9406L2.08125 30.5344L4.85625 24.2812L9.01875 17.3437L13.1813 12.4875L21.5063 6.24375L28.4531 2.775L36.0844 0.693749L40.9406 0ZM43.0219 6.9375L34.0031 8.325L25.6687 11.7937L18.7313 17.3437L13.1813 23.5875L9.01875 31.9219L7.63125 36.7781L6.9375 45.7969L8.325 54.8156L11.7937 63.1406L17.3437 70.0781L23.5875 75.6281L31.9219 79.8L36.7781 81.1875L45.7969 81.8812L54.8156 80.4937L61.7531 77.7094L68.6906 72.8531L74.2406 67.3031L79.0969 58.9781L81.1875 52.0406L81.8812 43.0219L80.4937 34.0031L77.0156 25.6687L72.1594 19.425L67.3031 14.5687L58.9781 9.7125L52.0406 7.63125L43.0219 6.9375Z" fill="#B7E61D"/>
</g>
<path d="M40.9406 18.7312H47.8781V26.3625H52.0406L56.8969 29.8406L58.9781 34.0031V36.7781H52.0406L49.9594 34.0031H38.8594L37.4719 35.3906L38.1656 38.8593L43.0219 40.2468L53.4281 42.3281L57.5906 45.7968L58.9781 49.2656V54.8156L55.5094 60.3656L51.3469 62.4468H47.8781V70.0781H40.9406V62.4468H36.7781L31.9219 58.9781L29.8406 54.8156V52.0406H36.7781L38.8594 54.8156H49.9594L51.3469 53.4281L50.6531 49.9593L45.7969 48.5718L35.3906 46.4906L31.2281 43.0218L29.8406 39.5531V34.0031L33.3094 28.4531L36.7781 26.3625H40.9406V18.7312Z" fill="#B7E61C"/>
</g>
<defs>
<clipPath id="clip0_925_298">
<rect width="90" height="90" fill="white"/>
</clipPath>
</defs>
</svg>
