<svg width="84" height="52" viewBox="0 0 84 52" fill="none" xmlns="http://www.w3.org/2000/svg">
<path d="M43.8512 26.2333C50.8192 26.2333 56.4679 20.5846 56.4679 13.6166C56.4679 6.64866 50.8192 1 43.8512 1C36.8833 1 31.2346 6.64866 31.2346 13.6166C31.2346 20.5846 36.8833 26.2333 43.8512 26.2333Z" stroke="#A7E61D" stroke-width="2" stroke-miterlimit="10"/>
<path d="M68.5974 24.8954C73.3754 24.8954 77.2486 21.0222 77.2486 16.2442C77.2486 11.4663 73.3754 7.59303 68.5974 7.59303C63.8195 7.59303 59.9462 11.4663 59.9462 16.2442C59.9462 21.0222 63.8195 24.8954 68.5974 24.8954Z" stroke="#A7E61D" stroke-width="2" stroke-miterlimit="10"/>
<path d="M24.3397 51V43.6249C24.3397 36.9221 29.7733 31.4885 36.4761 31.4885H51.2332C57.936 31.4885 63.3696 36.9221 63.3696 43.6249V51" stroke="#A7E61D" stroke-width="2" stroke-miterlimit="10"/>
<path d="M61.5585 31.2346H70.5596C77.2624 31.2346 82.696 36.6682 82.696 43.371V50.7462" stroke="#A7E61D" stroke-width="2" stroke-miterlimit="10" stroke-linecap="round"/>
<path d="M18.2475 24.8954C23.0254 24.8954 26.8987 21.0222 26.8987 16.2442C26.8987 11.4663 23.0254 7.59303 18.2475 7.59303C13.4696 7.59303 9.59631 11.4663 9.59631 16.2442C9.59631 21.0222 13.4696 24.8954 18.2475 24.8954Z" stroke="#A7E61D" stroke-width="2" stroke-miterlimit="10"/>
<path d="M22.1375 31.2346H13.1364C6.43359 31.2346 1 36.6682 1 43.371V50.7462" stroke="#A7E61D" stroke-width="2" stroke-miterlimit="10" stroke-linecap="round"/>
</svg>
