<svg width="90" height="90" viewBox="0 0 90 90" fill="none" xmlns="http://www.w3.org/2000/svg">
<g clip-path="url(#clip0_924_225)">
<mask id="mask0_924_225" style="mask-type:luminance" maskUnits="userSpaceOnUse" x="2" y="24" width="85" height="65">
<path d="M2.40002 24H86.4V88.8188H2.40002V24Z" fill="white"/>
</mask>
<g mask="url(#mask0_924_225)">
<path d="M65.9157 25.6687H77.7094L80.4938 27.7593V85.35H85.35L86.0438 88.125L85.35 88.8187H3.46877L2.77502 86.0437L3.46877 85.35H8.32502V67.9968L11.1 65.2218H22.8938L25.6688 67.9968V85.35H36.0844V52.7343L38.8594 50.6531H50.6532L53.4282 54.1218V85.35H63.1407V29.1468L64.5282 26.3625L65.9157 25.6687ZM67.3032 28.4531L66.6094 29.1468V85.35H77.7094V29.1468L76.3219 28.4531H67.3032ZM40.2469 53.4281L38.8594 54.1218V85.35H49.9594V54.1218L48.5719 53.4281H40.2469ZM12.4875 67.9968L11.1 69.3843V85.35H22.8938V69.3843L21.5063 67.9968H12.4875Z" fill="#B6E51C"/>
</g>
<path d="M67.9969 0H79.8L80.4938 0.693749V13.1813L77.7094 12.4875V6.24375L72.1594 11.1L58.9781 24.2813L55.5094 23.5875L50.6531 18.7313L47.8781 20.1187L20.1187 47.8781L17.3438 47.1844L18.7313 44.4094L49.2656 13.875L52.0406 14.5687L57.5906 20.1187L62.4469 15.9563L74.2406 4.1625L67.9969 3.46875L67.3031 0.693749L67.9969 0Z" fill="#B6E51D"/>
<path d="M11.7938 51.3469H14.5688L13.875 54.1219H11.7938V51.3469Z" fill="#B6E41A"/>
</g>
<defs>
<clipPath id="clip0_924_225">
<rect width="90" height="90" fill="white"/>
</clipPath>
</defs>
</svg>
