<?xml version="1.0" encoding="UTF-8"?>
<svg id="Capa_2" data-name="Capa 2" xmlns="http://www.w3.org/2000/svg" viewBox="0 0 243.43 236.82">
  <g id="Capa_1-2" data-name="Capa 1">
    <path fill="#a7e61d" d="M107.54,236.82c-9.82.07-17.35-6.13-17.35-15.89l-.04-112.15L30.15,49.29,4.59,24.11C1.14,19.1-1.95,12.98,1.53,7.01,4,2.77,10.28,0,16.13,0l212.31.09c6.14,0,11.3,3.44,14.27,7.53,1.84,6.28.08,12.26-4.69,17l-84.78,84.27-.08,114.3c0,7.17-7.2,12.65-13.31,13.4l-32.32.21ZM136.44,230.48c5.59.46,10.46-3.64,10.46-9.52l-.03-114.62L224.1,29.75l12.33-12.92c.45-2.22.94-5.81-.11-7.1s-4.4-3.45-6.47-3.45l-213.49-.04c-3.74,0-7.15,2.01-10.12,4.01.03,4.03,1.27,7.45,4.25,10.41l85.91,85.47-.02,115.3c0,5.11,4.8,9,9.44,9.01l30.61.05Z"/>
  </g>
</svg>