<svg width="75" height="75" viewBox="0 0 75 75" fill="none" xmlns="http://www.w3.org/2000/svg">
<path d="M16.1875 8.09375H21.9687L28.3359 9.82812L34.1172 12.7188L36.4297 15.0312L38.7422 13.875L43.9453 10.4062L49.1484 8.67188L52.0391 8.09375H57.8203L59.5547 8.67188L60.1328 11.5625L64.7578 12.1406L65.3359 13.2969L68.2344 14.4531L68.8125 15.0312V56.0859L68.2344 56.6641L61.8672 56.0859L57.2422 55.5078H49.7266L47.4141 60.7109L42.7891 64.7578L38.7422 65.9141L32.9609 65.3359L29.4922 63.6016L25.4453 58.9766L24.2891 55.5078H16.7656L9.25 56.6641H5.78125L5.20312 56.0859V14.4531L8.67188 13.2969L9.25 12.1406L13.875 11.5625L14.4531 8.67188L16.1875 8.09375ZM16.1875 10.4062V43.3672L23.7109 43.9453L28.3359 44.5234L31.2266 42.2109L35.8516 40.4766V16.7656L30.0703 12.7188L23.7109 10.4062H16.1875ZM50.3047 10.4062L43.9453 12.7188L39.3203 16.1875L38.1641 17.3438V40.4766L43.9453 42.7891L45.6797 44.5234L57.8203 43.3672V10.4062H50.3047ZM10.9844 13.875V49.7266L15.6094 49.1484H24.8672L26.0234 46.2578L21.9687 45.1016H14.4531L13.875 13.875H10.9844ZM60.1328 13.875L59.5547 45.1016H52.0391L47.9922 46.2578L49.1484 49.1484H58.3984L63.0234 49.7266V13.875H60.1328ZM65.3359 15.6094L64.7578 51.4609L60.7109 50.8828H49.7266V52.6172L63.6016 54.3516H67.0781V16.1875L65.3359 15.6094ZM8.09375 15.6094L6.9375 16.1875V54.3516L14.4531 53.7734L24.2891 52.6172V50.8828H13.2969L9.25 51.4609L8.67188 15.6094H8.09375ZM33.5391 42.7891L30.0703 45.1016L27.1797 48.5703L26.6016 49.7266V56.0859L28.3359 59.5547L32.3828 63.0234L34.1172 63.6016H39.8984L43.3672 61.8672L46.8359 57.8203L47.4141 56.6641V49.7266L45.1016 46.2578L41.6328 43.3672L39.8984 42.7891H33.5391Z" fill="#B7E61D"/>
<path d="M34.1172 50.3047H37.5859L38.1641 50.8828V58.3984L40.4766 58.9766V60.1328H33.5391L34.1172 58.3984H35.8516V52.0391L34.1172 51.4609V50.3047Z" fill="#B7E61C"/>
<path d="M50.3047 35.2734H53.7734V37.5859L46.2578 38.7422L41.0547 40.4766V38.1641L47.4141 35.8516L50.3047 35.2734Z" fill="#B6E61C"/>
<path d="M20.2344 35.2734L26.6016 35.8516L32.9609 38.1641V40.4766L27.7578 38.7422L20.2344 37.5859V35.2734Z" fill="#B7E61C"/>
<path d="M48.5703 29.4922H54.3516V31.2266L45.6797 32.9609L42.7891 34.1172L40.4766 33.5391L42.7891 31.2266L48.5703 29.4922Z" fill="#B6E61D"/>
<path d="M19.6562 29.4922H25.4453L32.3828 31.8047L33.5391 33.5391L31.2266 34.1172L23.7109 31.8047L19.6562 31.2266V29.4922ZM48.5703 23.7109H54.3516V25.4453L45.6797 27.1797L42.7891 28.3359L40.4766 27.7578L42.2109 26.0234L48.5703 23.7109ZM19.6562 23.7109H25.4453L31.8047 26.0234L33.5391 27.7578L31.2266 28.3359L26.6016 26.6016L19.6562 25.4453V23.7109Z" fill="#B7E61D"/>
<path d="M49.1484 16.7656H52.0391V19.0781L41.6328 20.8125V19.0781L45.6797 17.3438L49.1484 16.7656Z" fill="#B7E61C"/>
<path d="M21.9688 16.7656L28.3359 17.3438L32.3828 19.0781V20.8125L28.9141 20.2344L21.9688 19.0781V16.7656Z" fill="#B6E61C"/>
<path d="M35.8516 45.6797L37.5859 46.2578L37.0078 48.5703L35.2734 47.9922L35.8516 45.6797Z" fill="#B7E61C"/>
</svg>
