<svg width="28" height="25" viewBox="0 0 28 25" fill="none" xmlns="http://www.w3.org/2000/svg">
<path d="M10.5 2.625C10.5 1.17578 11.6758 0 13.125 0H14.875C16.3242 0 17.5 1.17578 17.5 2.625V21.875C17.5 23.3242 16.3242 24.5 14.875 24.5H13.125C11.6758 24.5 10.5 23.3242 10.5 21.875V2.625ZM0 13.125C0 11.6758 1.17578 10.5 2.625 10.5H4.375C5.82422 10.5 7 11.6758 7 13.125V21.875C7 23.3242 5.82422 24.5 4.375 24.5H2.625C1.17578 24.5 0 23.3242 0 21.875V13.125ZM23.625 3.5H25.375C26.8242 3.5 28 4.67578 28 6.125V21.875C28 23.3242 26.8242 24.5 25.375 24.5H23.625C22.1758 24.5 21 23.3242 21 21.875V6.125C21 4.67578 22.1758 3.5 23.625 3.5Z" fill="#A7E61D"/>
</svg>
