<svg width="90" height="90" viewBox="0 0 90 90" fill="none" xmlns="http://www.w3.org/2000/svg">
<path d="M43.0218 9.71252L47.8781 10.4063L49.9593 13.875V22.8938L55.5093 24.975L62.4468 28.4531L63.8343 30.5344L63.1406 34.6969L67.3031 36.0844L80.4937 37.4719L81.8812 38.1657V42.3282L79.0968 45.1031L69.3843 46.4907V47.8782L65.2218 47.1844L63.8343 45.7969V43.7157L52.7343 44.4094L48.5718 43.7157L45.7968 44.4094V46.4907L40.2468 48.5719L43.0218 61.0594V67.3032L39.5531 70.7719L38.1656 71.4657L22.2 72.1594L17.3437 79.0969L16.65 79.8H13.1812L11.7937 77.7094V74.2407L13.875 70.0782L14.5687 63.1407L20.8125 62.4469L22.2 63.1407L31.2281 61.0594V58.2844L29.1468 58.9782L27.7593 54.8157L24.975 45.7969V36.7782L27.7593 32.6157L28.4531 30.5344H22.8937L14.5687 34.0032L11.1 37.4719L6.93745 38.1657L4.8562 35.3906V31.2281L6.93745 29.1469L15.2625 24.975L22.2 22.2L29.8406 20.1188H36.7781V13.875L40.2468 10.4063L43.0218 9.71252ZM40.9406 11.7938L38.8593 13.875L38.1656 17.3438L43.0218 15.9563V14.5688H47.8781L46.4906 11.7938H40.9406ZM44.4093 15.9563L43.0218 18.0375H40.2468V22.8938L42.3281 24.2813H47.1843L48.5718 19.425V16.65L44.4093 15.9563ZM31.2281 21.5063L23.5875 23.5875L24.2812 27.7594L25.6687 28.4531L32.6156 27.7594L30.5343 29.8407L28.4531 35.3906L27.0656 36.0844V37.4719L39.5531 34.6969L43.0218 34.0032L44.4093 29.8407L40.2468 29.1469L38.1656 26.3625L36.7781 21.5063H31.2281ZM38.8593 24.2813L40.9406 28.4531H44.4093L45.1031 26.3625L38.8593 24.2813ZM19.425 24.975L12.4875 28.4531L6.2437 31.9219L6.93745 36.0844L11.1 35.3906L13.1812 32.6157L22.2 29.1469L22.8937 27.0657L21.5062 24.975H19.425ZM47.8781 24.975L45.7968 28.4531V29.8407L52.7343 28.4531L53.4281 25.6688L47.8781 24.975ZM54.8156 27.7594V29.1469L58.2843 29.8407L58.9781 31.2281L54.1218 29.8407L49.2656 30.5344V33.3094L61.0593 34.6969L61.7531 30.5344L57.5906 27.7594H54.8156ZM45.7968 31.2281L45.1031 34.0032H47.1843V31.2281H45.7968ZM48.5718 34.6969L45.1031 36.7782L44.4093 41.6344L45.7968 43.0219L48.5718 41.6344L49.9593 34.6969H48.5718ZM53.4281 34.6969L49.9593 38.1657L50.6531 41.6344L51.3468 42.3282H62.4468L67.3031 40.9407L68.6906 38.8594L62.4468 36.7782L53.4281 34.6969ZM42.3281 35.3906L31.2281 37.4719L27.7593 38.8594L27.0656 40.2469V46.4907L29.8406 56.2032L38.8593 54.1219L39.5531 52.7344L38.1656 49.2657L30.5343 50.6532V49.2657L35.3906 48.5719L43.7156 45.1031V35.3906H42.3281ZM70.0781 38.8594L68.6906 41.6344L65.2218 43.0219L65.9156 45.7969L69.3843 45.1031L77.7093 43.0219L80.4937 39.5532L79.0968 38.8594H70.0781ZM36.0843 55.5094L32.6156 56.8969L33.3093 60.3657L36.7781 63.8344L38.1656 68.6907L40.9406 67.3032L41.6343 62.4469L40.2468 55.5094H36.0843ZM29.8406 63.1407L22.2 65.2219V69.3844L36.0843 70.0782L36.7781 67.9969L34.6968 63.1407H29.8406ZM17.3437 63.8344L14.5687 73.5469V78.4032L16.65 77.7094L20.8125 70.7719L20.1187 64.5282L17.3437 63.8344Z" fill="#B7E61D"/>
<path d="M76.3219 18.0375L81.8813 18.7312L85.35 21.5062L86.7375 24.975L86.0438 29.8406L83.2688 33.3094L77.7094 34.6969L72.8531 32.6156L70.7719 29.8406L70.0781 24.975L72.1594 20.8125L76.3219 18.0375ZM75.6281 20.1187L72.1594 23.5875V28.4531L73.5469 30.5344H77.0156L78.4031 32.6156L81.8813 31.9219L82.575 30.5344L81.8813 27.0656L84.6563 25.6687L83.2688 21.5062L81.1875 20.1187H75.6281Z" fill="#B6E61D"/>
<path d="M75.6281 22.2H79.8V25.6688L76.3219 27.0656L74.2406 24.2813L75.6281 22.2Z" fill="#B7E61D"/>
</svg>
