<svg width="68" height="95" viewBox="0 0 68 95" fill="none" xmlns="http://www.w3.org/2000/svg">
<path d="M33.6274 92.0002C21.466 78.5157 5.66782 56.2392 2.4865 38.7274C0.12942 25.7418 6.55715 13.0309 17.258 6.56705C28.906 -0.468023 43.316 0.818969 53.5468 9.09042C63.9657 17.5209 67.7977 31.2368 63.4957 44.0995C57.6825 61.2787 46.2948 77.7131 33.6274 92.0002Z" stroke="#A7E61D" stroke-width="4" stroke-miterlimit="10"/>
<path d="M33.6201 48.3437C42.0577 48.3437 48.8977 41.5037 48.8977 33.0661C48.8977 24.6285 42.0577 17.7885 33.6201 17.7885C25.1825 17.7885 18.3425 24.6285 18.3425 33.0661C18.3425 41.5037 25.1825 48.3437 33.6201 48.3437Z" stroke="#A7E61D" stroke-width="4.3" stroke-miterlimit="10"/>
</svg>
