<svg width="60" height="60" viewBox="0 0 60 60" fill="none" xmlns="http://www.w3.org/2000/svg">
<path d="M19.4312 0.924988H27.2937L33.3062 2.77499L37.9312 5.54999L42.0937 9.71249L44.8687 14.3375L46.2562 18.5062L46.7187 20.8187V27.2937L45.3312 32.3812L42.0937 38.8562L58.75 55.5125V57.825L58.2875 58.2875H55.975L39.7812 42.0937L37.9312 42.5562L32.3812 45.7937L27.2937 47.1812H19.8937L13.875 45.3312L9.25 42.5562L6.0125 39.7812L2.775 35.1562L0.462498 28.6812V19.4312L2.3125 13.875L5.55 8.78749L10.175 4.62499L15.725 1.84999L19.4312 0.924988ZM20.3562 4.62499L15.725 6.01249L11.1 8.78749L7.8625 12.025L4.625 18.5062L4.1625 20.3562V27.7562L6.0125 32.8437L8.7875 37.0062L12.4875 40.2437L17.1125 42.5562L20.8187 43.4812H26.3687L32.3812 41.6312L37.4687 37.9312L40.2437 34.2312L42.0937 30.5312L43.0187 26.3687V21.7437L41.6312 16.65L39.3187 12.4875L36.5437 9.24999L31.4562 6.01249L26.3687 4.62499H20.3562Z" fill="#B7E61C"/>
<path d="M20.8188 7.40002H25.9063L30.5313 8.78753L34.2313 11.1V13.4125L33.3063 14.3375L30.9938 13.875L27.2938 12.025L22.2063 11.5625L17.575 12.95L15.2625 13.4125L14.3375 12.4875V10.175L16.1875 8.78753L20.8188 7.40002Z" fill="#B6E61C"/>
</svg>
