<svg width="51" height="51" viewBox="0 0 51 51" fill="none" xmlns="http://www.w3.org/2000/svg">
<path d="M25.5 50.5C39.3071 50.5 50.5 39.3071 50.5 25.5C50.5 11.6929 39.3071 0.5 25.5 0.5C11.6929 0.5 0.5 11.6929 0.5 25.5C0.5 39.3071 11.6929 50.5 25.5 50.5Z" stroke="#A7E61D" stroke-miterlimit="10"/>
<path d="M16.902 24.2804H9.66413C8.53191 24.2804 7.48708 24.8845 6.92097 25.8647L3.30395 32.1299C2.73784 33.1102 2.73784 34.3184 3.30395 35.2986L6.92097 41.5638C7.48708 42.5441 8.53191 43.1482 9.66413 43.1482H16.902C18.0342 43.1482 19.079 42.5441 19.6451 41.5638L23.2622 35.2986C23.8283 34.3184 23.8283 33.1102 23.2622 32.1299L19.6451 25.8647C19.079 24.8845 18.0342 24.2804 16.902 24.2804Z" stroke="#A7E61D" stroke-miterlimit="10"/>
<path d="M2.25909 16.0243L5.20362 21.3587C5.9939 22.791 7.50226 23.6839 9.13979 23.6839H14.6793C16.3168 23.6839 17.8252 22.7948 18.6155 21.3587L21.56 16.0243C22.3047 14.6717 22.3047 13.0304 21.56 11.6816L18.6155 6.34727C17.8252 4.91489 16.3168 4.02204 14.6793 4.02204H12.7036" stroke="#A7E61D" stroke-miterlimit="10"/>
<path d="M32.2857 13.2204H25.0479C23.9157 13.2204 22.8708 13.8245 22.3047 14.8047L18.6877 21.0699C18.1216 22.0501 18.1216 23.2584 18.6877 24.2386L22.3047 30.5038C22.8708 31.484 23.9157 32.0881 25.0479 32.0881H32.2857C33.4179 32.0881 34.4628 31.484 35.0289 30.5038L38.6459 24.2386C39.212 23.2584 39.212 22.0501 38.6459 21.0699L35.0289 14.8047C34.4628 13.8245 33.4179 13.2204 32.2857 13.2204Z" stroke="#A7E61D" stroke-miterlimit="10"/>
<path d="M18.6345 1.25608C17.8328 2.64666 17.8328 4.36018 18.6345 5.75076L21.3549 10.4658C22.1565 11.8564 23.6421 12.715 25.2492 12.715H30.6938C32.3009 12.715 33.7827 11.8564 34.5881 10.4658L37.3085 5.75076C37.7112 5.05547 37.9126 4.2804 37.9126 3.50152" stroke="#A7E61D" stroke-miterlimit="10"/>
<path d="M50.5418 22.5555C49.9681 22.2971 49.3412 22.1565 48.6915 22.1565H42.9886C41.3815 22.1565 39.8997 23.0152 39.0942 24.4058L36.2409 29.345C35.4392 30.7356 35.4392 32.4491 36.2409 33.8397L39.0942 38.7789C39.8959 40.1694 41.3815 41.0281 42.9886 41.0281H45.0859" stroke="#A7E61D" stroke-miterlimit="10"/>
<path d="M38.361 46.9362L39.6869 44.6375C40.4886 43.247 40.4886 41.5334 39.6869 40.1429L36.8336 35.2036C36.0319 33.8131 34.5464 32.9544 32.9392 32.9544H27.2363C25.6292 32.9544 24.1474 33.8131 23.342 35.2036L20.4886 40.1429C19.6869 41.5334 19.6869 43.247 20.4886 44.6375L23.342 49.5767C23.5395 49.9149 23.7751 50.2264 24.0448 50.4962" stroke="#A7E61D" stroke-miterlimit="10"/>
<path d="M38.2964 4.02204C38.0874 4.2538 37.9012 4.50836 37.7416 4.78572L34.8883 9.72493C34.0866 11.1155 34.0866 12.829 34.8883 14.2196L37.7416 19.1588C38.5433 20.5494 40.0289 21.4081 41.636 21.4081H47.3389C48.3116 21.4081 49.2424 21.0927 50.0023 20.5342" stroke="#A7E61D" stroke-miterlimit="10"/>
</svg>
