<svg width="103" height="73" viewBox="0 0 103 73" fill="none" xmlns="http://www.w3.org/2000/svg">
<path d="M60.5 24.5H90.5" stroke="#A6DB1F" stroke-width="3" stroke-miterlimit="10"/>
<path d="M60.5 33.5H90.5" stroke="#A6DB1F" stroke-width="3" stroke-miterlimit="10"/>
<path d="M60.5 52.5H88.5" stroke="#A6DB1F" stroke-width="3" stroke-miterlimit="10"/>
<path d="M60.5 42.5H85.5" stroke="#A6DB1F" stroke-width="3" stroke-miterlimit="10"/>
<path d="M95.8341 1.5H7.16592C4.03672 1.5 1.5 3.2757 1.5 5.46614V67.5339C1.5 69.7243 4.03672 71.5 7.16592 71.5H95.8341C98.9633 71.5 101.5 69.7243 101.5 67.5339V5.46614C101.5 3.2757 98.9633 1.5 95.8341 1.5Z" stroke="#A6DB1F" stroke-width="3" stroke-miterlimit="10"/>
<path d="M48.5169 20.5H17.4831C16.3879 20.5 15.5 21.3879 15.5 22.4831V53.5169C15.5 54.6122 16.3879 55.5 17.4831 55.5H48.5169C49.6121 55.5 50.5 54.6122 50.5 53.5169V22.4831C50.5 21.3879 49.6121 20.5 48.5169 20.5Z" stroke="#A6DB1F" stroke-width="3" stroke-miterlimit="10"/>
<path d="M33.1621 38.6359C37.6237 38.6359 41.2405 35.2476 41.2405 31.068C41.2405 26.8883 37.6237 23.5 33.1621 23.5C28.7006 23.5 25.0838 26.8883 25.0838 31.068C25.0838 35.2476 28.7006 38.6359 33.1621 38.6359Z" stroke="#A6DB1F" stroke-width="3" stroke-miterlimit="10"/>
<path d="M20.6621 53.5V49.0728C20.6621 45.051 24.1433 41.7897 28.4363 41.7897H37.8879C42.1809 41.7897 45.6621 45.051 45.6621 49.0728V53.5" stroke="#A6DB1F" stroke-width="3" stroke-miterlimit="10" stroke-linecap="round"/>
</svg>
