<svg width="75" height="80" viewBox="0 0 75 80" fill="none" xmlns="http://www.w3.org/2000/svg">
<path d="M30.5344 0H38.8594L45.7969 2.775L51.3469 7.63125L54.1219 11.7937L55.5094 15.9562V25.6781L52.7344 32.6156L48.5719 37.4719L42.3281 40.9406L36.7781 42.3281L29.1469 41.6344L22.9031 38.8594L18.0469 34.6969L13.875 26.3719V15.9562L16.65 9.7125L21.5156 4.1625L27.7594 0.693749L30.5344 0ZM33.3094 4.85625L27.0656 6.9375L22.9031 9.7125L19.4344 15.2625L18.7406 18.0375V24.2906L21.5156 30.5344L27.0656 35.3906L30.5344 36.7781H38.8594L44.4094 34.0031L49.2656 28.4531L50.6531 24.2906V18.0375L48.5719 12.4875L45.1031 9.01875L41.6344 6.24375L36.0844 4.85625H33.3094ZM63.8344 48.5719L68.6906 49.2656L72.8625 52.7344L74.25 55.5094V59.6719L71.475 63.8344L58.2844 77.025L55.5094 78.4125L47.1844 79.1063L43.7156 75.6375L44.4094 67.9969L46.4906 64.5281L61.7531 49.2656L63.8344 48.5719ZM63.8344 54.1219L62.4469 56.2031L65.9156 60.3656L68.6906 58.9781L69.3844 56.8969L66.6094 54.1219H63.8344ZM58.2844 59.6719L49.9594 67.9969L49.2656 73.5469H54.1219L63.1406 64.5281L58.9781 59.6719H58.2844ZM31.2281 47.8781H38.1656L45.7969 49.2656L47.8781 50.6531V54.1219L44.4094 54.8156L40.9406 54.1219H28.4531L19.4344 56.8969L12.4875 61.7531L8.325 67.3031L6.24375 72.8531L5.55 77.7188L4.1625 79.1063L0.693751 78.4125L0 76.3313L1.3875 68.6906L4.85625 61.7531L7.63125 58.2844L15.2625 52.7344L23.5969 49.2656L31.2281 47.8781Z" fill="#B7E51D"/>
</svg>
