<svg width="90" height="70" viewBox="0 0 90 70" fill="none" xmlns="http://www.w3.org/2000/svg">
<g clip-path="url(#clip0_904_522)">
<path d="M27.6738 0.218732C27.385 0.306232 25.3155 0.874982 22.9572 1.48748C19.7807 2.36248 18.2888 3.01873 16.7968 4.24373C15.6898 5.16248 11.5027 10.3687 7.41176 15.8375C3.32086 21.35 0 26.25 0 26.775C0 27.3875 0.721925 28.4375 1.78075 29.3562C2.79144 30.2312 5.53476 32.4625 7.94118 34.3C10.2995 36.1375 12.6578 37.625 13.0909 37.625C13.5722 37.625 14.8235 36.7062 15.8824 35.525C16.9893 34.3875 17.8556 33.3375 17.8075 33.1187C17.8075 32.9437 18.1444 32.8125 18.5294 32.8125C19.1551 32.8125 19.2513 35.175 19.3476 50.9687C19.4439 62.3 19.6845 69.2562 19.9733 69.5187C20.3102 69.825 28.5882 69.9562 45.2406 69.8687L70.0267 69.7812C70.2193 39.3312 70.4599 32.8125 70.7487 32.8125C70.9893 32.8125 71.615 33.1625 72.0481 33.6C72.5294 34.0375 73.6364 35.1312 74.4545 36.0062C75.3209 36.8812 76.4759 37.625 77.0053 37.625C77.5829 37.625 80.5187 35.525 83.984 32.5937C87.3048 29.8375 90 27.2125 90 26.775C90 26.3812 87.016 22.0062 83.3102 17.0625C79.6524 12.1187 75.8021 7.13123 74.7433 5.94998C73.7326 4.72498 71.9519 3.36873 70.7487 2.84373C69.5455 2.27498 66.9465 1.44373 64.9733 0.918732C61.6043 0.0874823 60.2567 -1.76877e-05 44.7594 0.0437323C35.615 0.0437323 27.9144 0.131232 27.6738 0.218732Z" fill="#D9D9D9"/>
<path d="M32.8235 3.93753C32.6791 4.28753 33.1123 5.46878 33.7379 6.47503C34.3636 7.52503 35.6631 9.18753 36.5775 10.15C37.4919 11.1563 39.2727 12.3813 40.524 12.95C41.8235 13.5188 43.6524 14 44.6149 14C45.6256 14 47.3101 13.6063 48.3689 13.2125C49.4278 12.775 51.0641 11.8125 51.9786 11.0688C52.893 10.325 54.4331 8.44378 55.3476 6.86878C56.262 5.29378 56.9358 3.89378 56.7914 3.80628C56.647 3.67503 51.2566 3.50003 44.8074 3.41253C34.7005 3.28128 33.0641 3.36878 32.8235 3.93753ZM24.0641 4.37503C22.3315 4.85628 20.4064 5.60003 19.7326 6.03753C19.0588 6.47503 17.2299 8.53128 15.6898 10.5438C14.1016 12.5563 10.8288 16.9313 8.32616 20.2125C5.87162 23.5375 3.85023 26.3813 3.85023 26.5563C3.8021 26.775 5.77536 28.35 8.18178 30.0563C10.5401 31.8063 12.6577 33.25 12.8502 33.25C13.0909 33.2938 14.9197 31.5 16.9411 29.3125C19.0107 27.1688 21.032 25.375 21.4171 25.375C21.8021 25.375 22.3315 25.7688 22.6203 26.25C22.909 26.775 23.1016 34.5188 23.1016 46.6813V66.2813C36.3369 66.9375 45.8181 67.1125 52.7005 67.0688C59.5828 67.025 65.5026 66.85 65.7914 66.7188C66.2727 66.5438 66.4171 62.2125 66.4171 47.1188C66.4171 32.4188 66.5615 27.5188 67.0427 26.6875C67.3796 26.075 68.0534 25.5938 68.5347 25.5938C69.0641 25.5938 70.8449 27.125 72.8663 29.3125C74.7914 31.3688 76.7647 33.075 77.2941 33.1188C77.8716 33.2063 79.5561 32.1125 81.9144 30.0563C83.9839 28.35 85.6684 26.6438 85.6684 26.3375C85.6684 26.075 84.032 23.5813 82.0106 20.8688C79.9893 18.2 76.7165 13.8688 74.7914 11.2438C72.77 8.61878 70.6524 6.30003 69.8823 5.95003C69.1604 5.60003 66.9946 4.94378 65.0695 4.41878C63.1925 3.89378 61.4599 3.58753 61.2192 3.67503C61.0267 3.76253 60.016 5.46878 58.9572 7.43753C57.4652 10.2375 56.3582 11.5938 54.1443 13.4313C52.4599 14.7875 50.1978 16.1438 48.7058 16.625C47.3582 17.1063 45.5294 17.5 44.7593 17.5C43.9411 17.5 42.0641 17.0625 40.524 16.5375C38.7914 15.925 36.8663 14.7875 35.2299 13.3875C33.5454 11.9 32.1016 10.1063 31.0427 8.09378C30.1764 6.38753 29.3101 4.68128 29.1657 4.24378C29.0213 3.85003 28.4919 3.50003 28.0107 3.54378C27.5775 3.54378 25.7968 3.93753 24.0641 4.37503Z" fill="#05070B"/>
</g>
<defs>
<clipPath id="clip0_904_522">
<rect width="90" height="70" fill="white"/>
</clipPath>
</defs>
</svg>
