<svg width="90" height="90" viewBox="0 0 90 90" fill="none" xmlns="http://www.w3.org/2000/svg">
<path d="M17.3438 2.77502L21.5063 4.16252L22.2 9.71252H33.3094V5.55002L34.6969 3.46877L38.1656 2.77502L40.9407 4.16252L41.6344 9.71252H52.7344V5.55002L54.1219 3.46877L57.5907 2.77502L60.3657 4.16252L61.0594 9.71252H66.6094L70.0782 11.7938L72.1594 15.2625V36.7781H69.3844V23.5875H5.55002L6.24377 71.4656L7.63128 72.8531L38.1656 73.5469V76.3219H8.32502L4.85628 74.2406L2.77502 70.7719V15.2625L4.85628 11.7938L9.01877 9.71252H13.875V5.55002L15.2625 3.46877L17.3438 2.77502ZM16.65 5.55002V15.2625H19.425V5.55002H16.65ZM36.0844 5.55002V15.2625H38.8594V5.55002H36.0844ZM55.5094 5.55002V15.2625H58.2844V5.55002H55.5094ZM7.63128 12.4875L5.55002 14.5688V20.8125H69.3844V14.5688L67.3032 12.4875H61.0594L59.6719 16.65L56.2032 17.3438L54.1219 16.65L52.7344 12.4875H41.6344L40.2469 16.65L36.7782 17.3438L34.6969 16.65L33.3094 12.4875H22.2L20.8125 16.65L17.3438 17.3438L15.2625 16.65L13.875 12.4875H7.63128Z" fill="#B6E41A"/>
<path d="M59.6719 38.8594H65.2219L72.1594 40.9406L77.7094 44.4094L82.575 49.9594L85.35 56.2031L86.0438 59.6719V65.2219L83.9625 72.1594L80.4938 77.7094L74.9344 82.575L68.6906 85.35L65.2219 86.0438H59.6719L52.7344 83.9625L47.1844 80.4938L42.3281 74.9344L39.5531 68.6906L38.8594 65.2219V59.6719L40.9406 52.7344L44.4094 47.1844L49.9594 42.3281L56.2031 39.5531L59.6719 38.8594ZM57.5906 41.6344L51.3469 44.4094L45.7969 49.2656L43.0219 53.4281L41.6344 57.5906V67.3031L44.4094 73.5469L49.2656 79.0969L53.4281 81.8813L57.5906 83.2688H67.3031L73.5469 80.4938L79.0969 75.6281L81.8813 71.4656L83.2688 67.3031V57.5906L80.4938 51.3469L75.6281 45.7969L71.4656 43.0219L67.3031 41.6344H57.5906Z" fill="#B7E51C"/>
<path d="M60.3656 44.4094L67.9969 45.1031L74.2406 48.5719L77.7094 52.7344L79.8 56.8969L80.4937 64.5281L78.4031 70.7719L74.2406 76.3219L67.9969 79.8L60.3656 80.4937L54.1219 78.4031L49.9594 75.6281L47.1844 72.1594L45.1031 67.9969L44.4094 60.3656L46.4906 54.1219L50.6531 48.5719L56.8969 45.1031L60.3656 44.4094ZM58.2844 47.1844L52.7344 49.9594L48.5719 54.8156L47.1844 58.2844V61.0594L50.6531 61.7531V63.1406L47.1844 63.8344L47.8781 68.6906L52.0406 74.2406L56.2031 77.0156L61.0594 77.7094L61.7531 74.2406H63.1406L63.8344 77.7094L68.6906 77.0156L74.2406 72.8531L77.0156 68.6906L77.7094 63.8344H74.2406V61.0594H77.7094L77.0156 56.2031L72.8531 50.6531L68.6906 47.8781L63.8344 47.1844L63.1406 50.6531H61.7531L61.0594 47.1844H58.2844Z" fill="#B6E51C"/>
<path d="M25.6687 56.8969H35.3906L36.0843 57.5906V67.3031L35.3906 67.9969H25.6687L24.975 67.3031V57.5906L25.6687 56.8969ZM27.7594 59.6719V65.2219H33.3094V59.6719H27.7594Z" fill="#B5E418"/>
<path d="M11.7937 56.8968H21.5062L22.2 57.5906V67.3031L21.5062 67.9968H11.7937L11.1 67.3031V57.5906L11.7937 56.8968ZM13.875 59.6719V65.2218H19.425V59.6719H13.875ZM25.6687 43.0219H35.3906L36.0844 43.7156V53.4281L35.3906 54.1219H25.6687L24.975 53.4281V43.7156L25.6687 43.0219ZM27.7594 45.7969V51.3469H33.3094V45.7969H27.7594Z" fill="#B6E418"/>
<path d="M11.7937 43.0218H21.5062L22.2 43.7156V53.4281L21.5062 54.1218H11.7937L11.1 53.4281V43.7156L11.7937 43.0218ZM13.875 45.7969V51.3468H19.425V45.7969H13.875ZM39.5531 29.1469H49.2656L49.9594 29.8406V39.5531L49.2656 40.2469H39.5531L38.8594 39.5531V29.8406L39.5531 29.1469ZM41.6344 31.9219V37.4719H47.1844V31.9219H41.6344ZM25.6687 29.1469H35.3906L36.0844 29.8406V39.5531L35.3906 40.2469H25.6687L24.975 39.5531V29.8406L25.6687 29.1469ZM27.7594 31.9219V37.4719H33.3094V31.9219H27.7594Z" fill="#B6E419"/>
<path d="M53.4281 29.1469H63.1406L63.8344 29.8406V35.3906H61.0594V31.9219H55.5094V36.7781L52.7344 36.0844V29.8406L53.4281 29.1469Z" fill="#B6E418"/>
<path d="M61.7531 54.1219L63.8344 54.8156L64.5281 62.4469L67.9969 65.9156L67.3031 67.9969L64.5281 66.6094L61.0594 62.4469V54.8156L61.7531 54.1219Z" fill="#B4E214"/>
</svg>
